<?xml version="1.0" encoding="UTF-8" standalone="no"?>
<!DOCTYPE svg PUBLIC "-//W3C//DTD SVG 1.1//EN"
 "http://www.w3.org/Graphics/SVG/1.1/DTD/svg11.dtd">
<!-- Generated by graphviz version 2.44.0 (0)
 -->
<!-- Title: inheritance99966726dd Pages: 1 -->
<svg width="371pt" height="193pt"
 viewBox="0.00 0.00 371.00 193.00" xmlns="http://www.w3.org/2000/svg" xmlns:xlink="http://www.w3.org/1999/xlink">
<g id="graph0" class="graph" transform="scale(1 1) rotate(0) translate(4 189)">
<title>inheritance99966726dd</title>
<!-- AlignmentData -->
<g id="node1" class="node">
<title>AlignmentData</title>
<g id="a_node1"><a xlink:href="../api/ViSP_Pipeline.Data.AlignmentData.html#ViSP_Pipeline.Data.AlignmentData" xlink:title="AlignmentData is an extension of `FitData` designed to only hold data associated with Alignment. It inherits all of the" target="_top">
<polygon fill="white" stroke="black" stroke-width="0.5" points="363,-185 273,-185 273,-166 363,-166 363,-185"/>
<text text-anchor="middle" x="318" y="-173" font-family="Vera Sans, DejaVu Sans, Liberation Sans, Arial, Helvetica, sans" font-size="10.00">AlignmentData</text>
</a>
</g>
</g>
<!-- _TaskData -->
<g id="node2" class="node">
<title>_TaskData</title>
<g id="a_node2"><a xlink:title="_TaskData is a class template that is used to define specific *Data classes that are designed to only hold data">
<polygon fill="white" stroke="black" stroke-width="0.5" points="209.5,-130 142.5,-130 142.5,-111 209.5,-111 209.5,-130"/>
<text text-anchor="middle" x="176" y="-118" font-family="Vera Sans, DejaVu Sans, Liberation Sans, Arial, Helvetica, sans" font-size="10.00">_TaskData</text>
</a>
</g>
</g>
<!-- _TaskData&#45;&gt;AlignmentData -->
<g id="edge1" class="edge">
<title>_TaskData&#45;&gt;AlignmentData</title>
<path fill="none" stroke="black" stroke-width="0.5" d="M201.39,-130.08C225.33,-139.49 261.88,-153.85 287.46,-163.9"/>
<polygon fill="black" stroke="black" stroke-width="0.5" points="287.13,-165.65 292.42,-165.84 288.41,-162.39 287.13,-165.65"/>
</g>
<!-- DarkData -->
<g id="node6" class="node">
<title>DarkData</title>
<g id="a_node6"><a xlink:href="../api/ViSP_Pipeline.Data.DarkData.html#ViSP_Pipeline.Data.DarkData" xlink:title="DarkData is an extension of `FitData` designed to only hold data associated with Dark. It inherits all of the" target="_top">
<polygon fill="white" stroke="black" stroke-width="0.5" points="349.5,-148 286.5,-148 286.5,-129 349.5,-129 349.5,-148"/>
<text text-anchor="middle" x="318" y="-136" font-family="Vera Sans, DejaVu Sans, Liberation Sans, Arial, Helvetica, sans" font-size="10.00">DarkData</text>
</a>
</g>
</g>
<!-- _TaskData&#45;&gt;DarkData -->
<g id="edge3" class="edge">
<title>_TaskData&#45;&gt;DarkData</title>
<path fill="none" stroke="black" stroke-width="0.5" d="M209.82,-124.72C231.22,-127.47 259.15,-131.06 281.13,-133.89"/>
<polygon fill="black" stroke="black" stroke-width="0.5" points="281.12,-135.65 286.3,-134.55 281.56,-132.18 281.12,-135.65"/>
</g>
<!-- LampGainData -->
<g id="node9" class="node">
<title>LampGainData</title>
<g id="a_node9"><a xlink:href="../api/ViSP_Pipeline.Data.LampGainData.html#ViSP_Pipeline.Data.LampGainData" xlink:title="LampGainData is an extension of `FitData` designed to only hold data associated with LampGain. It inherits all of the" target="_top">
<polygon fill="white" stroke="black" stroke-width="0.5" points="362.5,-111 273.5,-111 273.5,-92 362.5,-92 362.5,-111"/>
<text text-anchor="middle" x="318" y="-99" font-family="Vera Sans, DejaVu Sans, Liberation Sans, Arial, Helvetica, sans" font-size="10.00">LampGainData</text>
</a>
</g>
</g>
<!-- _TaskData&#45;&gt;LampGainData -->
<g id="edge5" class="edge">
<title>_TaskData&#45;&gt;LampGainData</title>
<path fill="none" stroke="black" stroke-width="0.5" d="M209.82,-116.05C227.11,-113.7 248.66,-110.77 267.89,-108.16"/>
<polygon fill="black" stroke="black" stroke-width="0.5" points="268.53,-109.84 273.25,-107.44 268.06,-106.38 268.53,-109.84"/>
</g>
<!-- SolarGainData -->
<g id="node12" class="node">
<title>SolarGainData</title>
<g id="a_node12"><a xlink:href="../api/ViSP_Pipeline.Data.SolarGainData.html#ViSP_Pipeline.Data.SolarGainData" xlink:title="SolarGainData is an extension of `FitData` designed to only hold data associated with SolarGain. It inherits all of the" target="_top">
<polygon fill="white" stroke="black" stroke-width="0.5" points="361.5,-74 274.5,-74 274.5,-55 361.5,-55 361.5,-74"/>
<text text-anchor="middle" x="318" y="-62" font-family="Vera Sans, DejaVu Sans, Liberation Sans, Arial, Helvetica, sans" font-size="10.00">SolarGainData</text>
</a>
</g>
</g>
<!-- _TaskData&#45;&gt;SolarGainData -->
<g id="edge7" class="edge">
<title>_TaskData&#45;&gt;SolarGainData</title>
<path fill="none" stroke="black" stroke-width="0.5" d="M209.78,-111.92C218.73,-109.24 228.34,-106.04 237,-102.5 253.74,-95.65 256.68,-91.31 273,-83.5 278.17,-81.02 283.75,-78.5 289.13,-76.14"/>
<polygon fill="black" stroke="black" stroke-width="0.5" points="290.12,-77.62 294.01,-74.03 288.73,-74.41 290.12,-77.62"/>
</g>
<!-- CSStep -->
<g id="node3" class="node">
<title>CSStep</title>
<g id="a_node3"><a xlink:href="../api/ViSP_Pipeline.Data.CSStep.html#ViSP_Pipeline.Data.CSStep" xlink:title="This class allows for an easy way to quickly compare SPEC&#45;0122 style headers to determine if they come from the" target="_top">
<polygon fill="white" stroke="black" stroke-width="0.5" points="66.5,-111 12.5,-111 12.5,-92 66.5,-92 66.5,-111"/>
<text text-anchor="middle" x="39.5" y="-99" font-family="Vera Sans, DejaVu Sans, Liberation Sans, Arial, Helvetica, sans" font-size="10.00">CSStep</text>
</a>
</g>
</g>
<!-- CalibrationCurveData -->
<g id="node4" class="node">
<title>CalibrationCurveData</title>
<g id="a_node4"><a xlink:href="../api/ViSP_Pipeline.Data.CalibrationCurveData.html#ViSP_Pipeline.Data.CalibrationCurveData" xlink:title="CalibrationCurveData is an extension of FitsData that loads a single Calibration Curve from a directory" target="_top">
<polygon fill="white" stroke="black" stroke-width="0.5" points="237,-93 115,-93 115,-74 237,-74 237,-93"/>
<text text-anchor="middle" x="176" y="-81" font-family="Vera Sans, DejaVu Sans, Liberation Sans, Arial, Helvetica, sans" font-size="10.00">CalibrationCurveData</text>
</a>
</g>
</g>
<!-- FitsData -->
<g id="node5" class="node">
<title>FitsData</title>
<g id="a_node5"><a xlink:href="../api/ViSP_Pipeline.Data.FitsData.html#ViSP_Pipeline.Data.FitsData" xlink:title="FitsData is a basically a wrapper for astropy.io.fits, with some extra methods and properties to aid the" target="_top">
<polygon fill="white" stroke="black" stroke-width="0.5" points="68,-74 11,-74 11,-55 68,-55 68,-74"/>
<text text-anchor="middle" x="39.5" y="-62" font-family="Vera Sans, DejaVu Sans, Liberation Sans, Arial, Helvetica, sans" font-size="10.00">FitsData</text>
</a>
</g>
</g>
<!-- FitsData&#45;&gt;_TaskData -->
<g id="edge8" class="edge">
<title>FitsData&#45;&gt;_TaskData</title>
<path fill="none" stroke="black" stroke-width="0.5" d="M60.14,-74.06C66.2,-77.05 72.89,-80.38 79,-83.5 95.11,-91.73 98.26,-95.65 115,-102.5 122.03,-105.38 129.7,-108.03 137.12,-110.36"/>
<polygon fill="black" stroke="black" stroke-width="0.5" points="136.92,-112.13 142.22,-111.92 137.95,-108.78 136.92,-112.13"/>
</g>
<!-- FitsData&#45;&gt;CalibrationCurveData -->
<g id="edge2" class="edge">
<title>FitsData&#45;&gt;CalibrationCurveData</title>
<path fill="none" stroke="black" stroke-width="0.5" d="M68.04,-68.39C80.2,-70.11 95.04,-72.2 109.76,-74.28"/>
<polygon fill="black" stroke="black" stroke-width="0.5" points="109.55,-76.02 114.75,-74.99 110.04,-72.56 109.55,-76.02"/>
</g>
<!-- DemodulationData -->
<g id="node8" class="node">
<title>DemodulationData</title>
<g id="a_node8"><a xlink:href="../api/ViSP_Pipeline.Data.DemodulationData.html#ViSP_Pipeline.Data.DemodulationData" xlink:title="DemodulationData is a small modification of the `FitsData` class. It keeps track of demodulation matrices for each" target="_top">
<polygon fill="white" stroke="black" stroke-width="0.5" points="230.5,-56 121.5,-56 121.5,-37 230.5,-37 230.5,-56"/>
<text text-anchor="middle" x="176" y="-44" font-family="Vera Sans, DejaVu Sans, Liberation Sans, Arial, Helvetica, sans" font-size="10.00">DemodulationData</text>
</a>
</g>
</g>
<!-- FitsData&#45;&gt;DemodulationData -->
<g id="edge4" class="edge">
<title>FitsData&#45;&gt;DemodulationData</title>
<path fill="none" stroke="black" stroke-width="0.5" d="M68.04,-60.81C81.97,-58.95 99.44,-56.61 116.2,-54.37"/>
<polygon fill="black" stroke="black" stroke-width="0.5" points="116.65,-56.07 121.38,-53.68 116.19,-52.61 116.65,-56.07"/>
</g>
<!-- SlitPositionData -->
<g id="node10" class="node">
<title>SlitPositionData</title>
<g id="a_node10"><a xlink:href="../api/ViSP_Pipeline.Data.SlitPositionData.html#ViSP_Pipeline.Data.SlitPositionData" xlink:title="SlitPositionData is an extension of FitsData that loads a single ViSP slit position (i.e. spatial step) from a" target="_top">
<polygon fill="white" stroke="black" stroke-width="0.5" points="223.5,-19 128.5,-19 128.5,0 223.5,0 223.5,-19"/>
<text text-anchor="middle" x="176" y="-7" font-family="Vera Sans, DejaVu Sans, Liberation Sans, Arial, Helvetica, sans" font-size="10.00">SlitPositionData</text>
</a>
</g>
</g>
<!-- FitsData&#45;&gt;SlitPositionData -->
<g id="edge6" class="edge">
<title>FitsData&#45;&gt;SlitPositionData</title>
<path fill="none" stroke="black" stroke-width="0.5" d="M58.54,-54.88C73.43,-47.16 95.24,-36.35 115,-28.5 122.01,-25.71 129.61,-23.05 136.96,-20.64"/>
<polygon fill="black" stroke="black" stroke-width="0.5" points="137.78,-22.21 142,-19.01 136.71,-18.88 137.78,-22.21"/>
</g>
<!-- DataSetData -->
<g id="node7" class="node">
<title>DataSetData</title>
<g id="a_node7"><a xlink:href="../api/ViSP_Pipeline.Data.DataSetData.html#ViSP_Pipeline.Data.DataSetData" xlink:title="DataSetData is designed to handle the aggregation of a bunch of files that belong to a single ViSP data set." target="_top">
<polygon fill="white" stroke="black" stroke-width="0.5" points="79,-148 0,-148 0,-129 79,-129 79,-148"/>
<text text-anchor="middle" x="39.5" y="-136" font-family="Vera Sans, DejaVu Sans, Liberation Sans, Arial, Helvetica, sans" font-size="10.00">DataSetData</text>
</a>
</g>
</g>
<!-- SoCCData -->
<g id="node11" class="node">
<title>SoCCData</title>
<g id="a_node11"><a xlink:href="../api/ViSP_Pipeline.Data.SoCCData.html#ViSP_Pipeline.Data.SoCCData" xlink:title="SoCCData performs 2 functions: First, it separates and sorts Calibration Sequence (CS) steps found among raw" target="_top">
<polygon fill="white" stroke="black" stroke-width="0.5" points="72,-185 7,-185 7,-166 72,-166 72,-185"/>
<text text-anchor="middle" x="39.5" y="-173" font-family="Vera Sans, DejaVu Sans, Liberation Sans, Arial, Helvetica, sans" font-size="10.00">SoCCData</text>
</a>
</g>
</g>
</g>
</svg>
